<!-- Generator: Adobe Illustrator 25.0.1, SVG Export Plug-In . SVG Version: 6.00 Build 0)  -->
<svg version="1.1" id="Calque_1" xmlns="http://www.w3.org/2000/svg" xmlns:xlink="http://www.w3.org/1999/xlink" x="0px" y="0px"
	 viewBox="0 0 20 11" style="enable-background:new 0 0 20 11;" xml:space="preserve">
<style type="text/css">
	.st0{fill:#0B2540;}
</style>
<g id="Groupe_185" transform="translate(-4867.295 2037.407)">
	<path class="st0" d="M4886.4-2031.4h-18.3c-0.3,0-0.5-0.2-0.5-0.5s0.2-0.5,0.5-0.5h18.3c0.3,0,0.5,0.2,0.5,0.5
		S4886.7-2031.4,4886.4-2031.4z"/>
	<path class="st0" d="M4873.3-2027c-0.1,0-0.2,0-0.3-0.1l-5.3-4.4c-0.1-0.1-0.2-0.2-0.2-0.4s0.1-0.3,0.2-0.4l5.3-4.4
		c0.2-0.2,0.5-0.2,0.7,0.1c0.2,0.2,0.2,0.5-0.1,0.7l-4.8,4.1l4.8,4.1c0.2,0.2,0.2,0.5,0.1,0.7C4873.6-2027,4873.5-2027,4873.3-2027z
		"/>
	<path class="st0" d="M4881.3-2027c-0.1,0-0.3-0.1-0.4-0.2c-0.2-0.2-0.2-0.5,0.1-0.7l4.8-4.1l-4.8-4.1c-0.2-0.2-0.2-0.5-0.1-0.7
		c0.2-0.2,0.5-0.2,0.7-0.1l5.3,4.4c0.1,0.1,0.2,0.2,0.2,0.4s-0.1,0.3-0.2,0.4l-5.3,4.4C4881.5-2027,4881.4-2027,4881.3-2027z"/>
</g>
</svg>
