<?xml version="1.0" encoding="utf-8"?>
<!-- Generator: Adobe Illustrator 25.0.1, SVG Export Plug-In . SVG Version: 6.00 Build 0)  -->
<svg version="1.1" id="Calque_1" xmlns="http://www.w3.org/2000/svg" xmlns:xlink="http://www.w3.org/1999/xlink" x="0px" y="0px"
	 viewBox="0 0 20 11" style="enable-background:new 0 0 20 11;" xml:space="preserve">
<style type="text/css">
	.st0{fill:#0B2540;}
</style>
<g id="Groupe_187" transform="translate(-4867.295 2108.407)">
	<path class="st0" d="M4878.4-2102.4h-2c-0.3,0-0.5-0.2-0.5-0.5s0.2-0.5,0.5-0.5h2c0.3,0,0.5,0.2,0.5,0.5
		S4878.7-2102.4,4878.4-2102.4z"/>
	<path class="st0" d="M4868.1-2098c-0.1,0-0.3-0.1-0.4-0.2c-0.2-0.2-0.2-0.5,0.1-0.7l4.8-4.1l-4.8-4.1c-0.2-0.2-0.2-0.5-0.1-0.7
		s0.5-0.2,0.7-0.1l5.3,4.4c0.1,0.1,0.2,0.2,0.2,0.4s-0.1,0.3-0.2,0.4l-5.3,4.4C4868.3-2098,4868.2-2098,4868.1-2098z"/>
	<path class="st0" d="M4886.5-2098c-0.1,0-0.2,0-0.3-0.1l-5.3-4.4c-0.1-0.1-0.2-0.2-0.2-0.4s0.1-0.3,0.2-0.4l5.3-4.4
		c0.2-0.2,0.5-0.2,0.7,0.1s0.2,0.5-0.1,0.7l-4.8,4.1l4.8,4.1c0.2,0.2,0.2,0.5,0.1,0.7C4886.8-2098,4886.7-2098,4886.5-2098z"/>
</g>
</svg>
